<mxfile host="Electron" modified="2023-10-21T11:16:04.372Z" agent="Mozilla/5.0 (Windows NT 10.0; Win64; x64) AppleWebKit/537.36 (KHTML, like Gecko) draw.io/21.5.1 Chrome/112.0.5615.204 Electron/24.6.0 Safari/537.36" etag="tTAsoShff2VE2uZZLs88" version="21.5.1" type="device">
  <diagram name="Page-1" id="PBG9AjffxWwCoUxOKcYG">
    <mxGraphModel dx="2097" dy="1834" grid="1" gridSize="10" guides="1" tooltips="1" connect="1" arrows="1" fold="1" page="1" pageScale="1" pageWidth="850" pageHeight="1100" math="0" shadow="0">
      <root>
        <mxCell id="0" />
        <mxCell id="1" parent="0" />
        <mxCell id="oJfoH0E-auPXnU4ZpnYq-31" value="" style="rounded=0;whiteSpace=wrap;html=1;fillColor=none;" vertex="1" parent="1">
          <mxGeometry x="1515" y="-10" width="170" height="280" as="geometry" />
        </mxCell>
        <mxCell id="oJfoH0E-auPXnU4ZpnYq-29" value="" style="rounded=0;whiteSpace=wrap;html=1;fillColor=none;" vertex="1" parent="1">
          <mxGeometry x="610" y="-115" width="860" height="395" as="geometry" />
        </mxCell>
        <mxCell id="oJfoH0E-auPXnU4ZpnYq-30" value="" style="rounded=0;whiteSpace=wrap;html=1;fillColor=none;" vertex="1" parent="1">
          <mxGeometry x="370" y="-20" width="170" height="380" as="geometry" />
        </mxCell>
        <mxCell id="oJfoH0E-auPXnU4ZpnYq-2" value="&lt;h1 style=&quot;text-align: justify; font-size: 16px;&quot;&gt;&lt;span style=&quot;font-weight: normal;&quot;&gt;-&lt;/span&gt; &lt;span style=&quot;font-weight: normal;&quot;&gt;user hoce da napravi svoje custom ROI&lt;/span&gt;&lt;/h1&gt;&lt;h1 style=&quot;text-align: justify; font-size: 16px;&quot;&gt;&lt;span style=&quot;font-weight: normal;&quot;&gt;- user hoce da napravi ROI na nivou ekrana (mi cemo onda da odredimo sta je bilo tada aktivno na prozoru u tom ROI)&lt;/span&gt;&lt;/h1&gt;&lt;div style=&quot;text-align: justify; font-size: 16px;&quot;&gt;- user hoce da labelira svoje ROI da bi znao sta znace&lt;/div&gt;&lt;div style=&quot;text-align: justify; font-size: 16px;&quot;&gt;- app napravi svoj ROI koji je sve sto nije user oznacio&lt;/div&gt;&lt;div style=&quot;text-align: justify; font-size: 16px;&quot;&gt;&lt;br&gt;&lt;/div&gt;&lt;div style=&quot;text-align: justify; font-size: 16px;&quot;&gt;&lt;b&gt;- cilj 1.&lt;/b&gt;&lt;/div&gt;&lt;div style=&quot;text-align: justify; font-size: 16px;&quot;&gt;&lt;b&gt;&lt;span style=&quot;white-space: pre;&quot;&gt;&#x9;&lt;/span&gt;- da znamo u sta je korisnik gledao&lt;br&gt;&lt;/b&gt;&lt;/div&gt;&lt;div style=&quot;text-align: justify; font-size: 16px;&quot;&gt;&lt;b&gt;&lt;span style=&quot;white-space: pre;&quot;&gt;&#x9;&lt;/span&gt;- da znamo koliko je korisnik gledao u to nesto&lt;br&gt;&lt;/b&gt;&lt;/div&gt;&lt;div style=&quot;text-align: justify; font-size: 16px;&quot;&gt;&lt;b&gt;&lt;span style=&quot;white-space: pre;&quot;&gt;&#x9;&lt;/span&gt;- iscrtati regije od interesa&lt;br&gt;&lt;/b&gt;&lt;/div&gt;&lt;div style=&quot;text-align: justify; font-size: 16px;&quot;&gt;&lt;b&gt;&lt;span style=&quot;white-space: pre;&quot;&gt;&#x9;&lt;/span&gt;* da radi online idealno (moze i offline)&lt;br&gt;&lt;/b&gt;&lt;/div&gt;" style="text;html=1;strokeColor=none;fillColor=none;spacing=5;spacingTop=-20;whiteSpace=wrap;overflow=hidden;rounded=0;" vertex="1" parent="1">
          <mxGeometry x="-190" y="20" width="450" height="250" as="geometry" />
        </mxCell>
        <mxCell id="oJfoH0E-auPXnU4ZpnYq-6" style="edgeStyle=orthogonalEdgeStyle;rounded=0;orthogonalLoop=1;jettySize=auto;html=1;entryX=0;entryY=0.5;entryDx=0;entryDy=0;" edge="1" parent="1" source="oJfoH0E-auPXnU4ZpnYq-4" target="oJfoH0E-auPXnU4ZpnYq-5">
          <mxGeometry relative="1" as="geometry" />
        </mxCell>
        <mxCell id="oJfoH0E-auPXnU4ZpnYq-4" value="korisnik crta&amp;nbsp;regione" style="rounded=0;whiteSpace=wrap;html=1;fillColor=#d5e8d4;strokeColor=#82b366;" vertex="1" parent="1">
          <mxGeometry x="390" y="25" width="120" height="60" as="geometry" />
        </mxCell>
        <mxCell id="oJfoH0E-auPXnU4ZpnYq-8" style="edgeStyle=orthogonalEdgeStyle;rounded=0;orthogonalLoop=1;jettySize=auto;html=1;entryX=0;entryY=0.5;entryDx=0;entryDy=0;" edge="1" parent="1" source="oJfoH0E-auPXnU4ZpnYq-5" target="oJfoH0E-auPXnU4ZpnYq-7">
          <mxGeometry relative="1" as="geometry" />
        </mxCell>
        <mxCell id="oJfoH0E-auPXnU4ZpnYq-5" value="pocni snimanje za ove regione" style="rounded=0;whiteSpace=wrap;html=1;fillColor=#dae8fc;strokeColor=#6c8ebf;" vertex="1" parent="1">
          <mxGeometry x="710" y="25" width="120" height="60" as="geometry" />
        </mxCell>
        <mxCell id="oJfoH0E-auPXnU4ZpnYq-10" style="edgeStyle=orthogonalEdgeStyle;rounded=0;orthogonalLoop=1;jettySize=auto;html=1;entryX=0;entryY=0.5;entryDx=0;entryDy=0;" edge="1" parent="1" source="oJfoH0E-auPXnU4ZpnYq-7" target="oJfoH0E-auPXnU4ZpnYq-9">
          <mxGeometry relative="1" as="geometry" />
        </mxCell>
        <mxCell id="oJfoH0E-auPXnU4ZpnYq-21" style="edgeStyle=orthogonalEdgeStyle;rounded=0;orthogonalLoop=1;jettySize=auto;html=1;entryX=0;entryY=0.5;entryDx=0;entryDy=0;" edge="1" parent="1" source="oJfoH0E-auPXnU4ZpnYq-7" target="oJfoH0E-auPXnU4ZpnYq-20">
          <mxGeometry relative="1" as="geometry">
            <Array as="points">
              <mxPoint x="995" y="-50" />
            </Array>
          </mxGeometry>
        </mxCell>
        <mxCell id="oJfoH0E-auPXnU4ZpnYq-7" value="hide nasu aplikaciju, van malog transparent toolbara koji kaze zaustavi snimanje ili sta vec" style="rounded=0;whiteSpace=wrap;html=1;fillColor=#dae8fc;strokeColor=#6c8ebf;" vertex="1" parent="1">
          <mxGeometry x="930" y="20" width="130" height="70" as="geometry" />
        </mxCell>
        <mxCell id="oJfoH0E-auPXnU4ZpnYq-13" style="edgeStyle=orthogonalEdgeStyle;rounded=0;orthogonalLoop=1;jettySize=auto;html=1;entryX=0;entryY=0.5;entryDx=0;entryDy=0;" edge="1" parent="1" source="oJfoH0E-auPXnU4ZpnYq-9" target="oJfoH0E-auPXnU4ZpnYq-11">
          <mxGeometry relative="1" as="geometry">
            <Array as="points">
              <mxPoint x="1270" y="135" />
              <mxPoint x="630" y="135" />
              <mxPoint x="630" y="215" />
            </Array>
          </mxGeometry>
        </mxCell>
        <mxCell id="oJfoH0E-auPXnU4ZpnYq-9" value="konstantno primamo podatke sa servera gazepointa" style="rounded=0;whiteSpace=wrap;html=1;fillColor=#6a00ff;strokeColor=#3700CC;fontColor=#ffffff;" vertex="1" parent="1">
          <mxGeometry x="1210" y="25" width="120" height="60" as="geometry" />
        </mxCell>
        <mxCell id="oJfoH0E-auPXnU4ZpnYq-16" style="edgeStyle=orthogonalEdgeStyle;rounded=0;orthogonalLoop=1;jettySize=auto;html=1;entryX=0;entryY=0.5;entryDx=0;entryDy=0;" edge="1" parent="1" source="oJfoH0E-auPXnU4ZpnYq-11" target="oJfoH0E-auPXnU4ZpnYq-14">
          <mxGeometry relative="1" as="geometry" />
        </mxCell>
        <mxCell id="oJfoH0E-auPXnU4ZpnYq-11" value="proveravamo da li je u poligonu" style="rounded=0;whiteSpace=wrap;html=1;fillColor=#6a00ff;strokeColor=#3700CC;fontColor=#ffffff;" vertex="1" parent="1">
          <mxGeometry x="650" y="185" width="120" height="60" as="geometry" />
        </mxCell>
        <mxCell id="oJfoH0E-auPXnU4ZpnYq-17" style="edgeStyle=orthogonalEdgeStyle;rounded=0;orthogonalLoop=1;jettySize=auto;html=1;entryX=0;entryY=0.5;entryDx=0;entryDy=0;" edge="1" parent="1" source="oJfoH0E-auPXnU4ZpnYq-14" target="oJfoH0E-auPXnU4ZpnYq-15">
          <mxGeometry relative="1" as="geometry" />
        </mxCell>
        <mxCell id="oJfoH0E-auPXnU4ZpnYq-14" value="u toolbaru gore kazemo sta je trenutno aktivirano od ROI" style="rounded=0;whiteSpace=wrap;html=1;fillColor=#6a00ff;strokeColor=#3700CC;fontColor=#ffffff;" vertex="1" parent="1">
          <mxGeometry x="930" y="185" width="120" height="60" as="geometry" />
        </mxCell>
        <mxCell id="oJfoH0E-auPXnU4ZpnYq-19" style="edgeStyle=orthogonalEdgeStyle;rounded=0;orthogonalLoop=1;jettySize=auto;html=1;entryX=0;entryY=0.5;entryDx=0;entryDy=0;" edge="1" parent="1" source="oJfoH0E-auPXnU4ZpnYq-15" target="oJfoH0E-auPXnU4ZpnYq-18">
          <mxGeometry relative="1" as="geometry" />
        </mxCell>
        <mxCell id="oJfoH0E-auPXnU4ZpnYq-23" style="edgeStyle=orthogonalEdgeStyle;rounded=0;orthogonalLoop=1;jettySize=auto;html=1;entryX=0;entryY=0.5;entryDx=0;entryDy=0;" edge="1" parent="1" source="oJfoH0E-auPXnU4ZpnYq-15" target="oJfoH0E-auPXnU4ZpnYq-22">
          <mxGeometry relative="1" as="geometry">
            <Array as="points">
              <mxPoint x="1270" y="160" />
              <mxPoint x="1435" y="160" />
              <mxPoint x="1435" y="40" />
            </Array>
          </mxGeometry>
        </mxCell>
        <mxCell id="oJfoH0E-auPXnU4ZpnYq-15" value="uz X, Y i TS cuvamo onda i labelu koji ROI je aktivirao taj X, Y i app u kojem je ROI" style="rounded=0;whiteSpace=wrap;html=1;fillColor=#6a00ff;strokeColor=#3700CC;fontColor=#ffffff;" vertex="1" parent="1">
          <mxGeometry x="1210" y="185" width="120" height="60" as="geometry" />
        </mxCell>
        <mxCell id="oJfoH0E-auPXnU4ZpnYq-18" value="na kraju sesije export CSV za da imamo kasnije" style="rounded=0;whiteSpace=wrap;html=1;fillColor=#fff2cc;strokeColor=#d6b656;" vertex="1" parent="1">
          <mxGeometry x="1540" y="185" width="120" height="60" as="geometry" />
        </mxCell>
        <mxCell id="oJfoH0E-auPXnU4ZpnYq-24" style="edgeStyle=orthogonalEdgeStyle;rounded=0;orthogonalLoop=1;jettySize=auto;html=1;entryX=0;entryY=0.5;entryDx=0;entryDy=0;" edge="1" parent="1" source="oJfoH0E-auPXnU4ZpnYq-20" target="oJfoH0E-auPXnU4ZpnYq-22">
          <mxGeometry relative="1" as="geometry" />
        </mxCell>
        <mxCell id="oJfoH0E-auPXnU4ZpnYq-20" value="napravi i snimak ekrana cele sesije koji ces sacuvati" style="rounded=0;whiteSpace=wrap;html=1;fillColor=#dae8fc;strokeColor=#6c8ebf;" vertex="1" parent="1">
          <mxGeometry x="1210" y="-80" width="120" height="60" as="geometry" />
        </mxCell>
        <mxCell id="oJfoH0E-auPXnU4ZpnYq-22" value="tacke + video za screen cap gde i sta je user gledao" style="rounded=0;whiteSpace=wrap;html=1;fillColor=#fff2cc;strokeColor=#d6b656;" vertex="1" parent="1">
          <mxGeometry x="1540" y="10" width="120" height="60" as="geometry" />
        </mxCell>
        <mxCell id="oJfoH0E-auPXnU4ZpnYq-25" value="input" style="text;html=1;align=center;verticalAlign=middle;resizable=0;points=[];autosize=1;strokeColor=none;fillColor=none;" vertex="1" parent="1">
          <mxGeometry x="425" y="-50" width="50" height="30" as="geometry" />
        </mxCell>
        <mxCell id="oJfoH0E-auPXnU4ZpnYq-26" value="output" style="text;html=1;align=center;verticalAlign=middle;resizable=0;points=[];autosize=1;strokeColor=none;fillColor=none;" vertex="1" parent="1">
          <mxGeometry x="1570" y="-40" width="60" height="30" as="geometry" />
        </mxCell>
        <mxCell id="oJfoH0E-auPXnU4ZpnYq-27" value="processing" style="text;html=1;align=center;verticalAlign=middle;resizable=0;points=[];autosize=1;strokeColor=none;fillColor=none;" vertex="1" parent="1">
          <mxGeometry x="1000" y="-150" width="80" height="30" as="geometry" />
        </mxCell>
        <mxCell id="oJfoH0E-auPXnU4ZpnYq-35" style="edgeStyle=orthogonalEdgeStyle;rounded=0;orthogonalLoop=1;jettySize=auto;html=1;" edge="1" parent="1" source="oJfoH0E-auPXnU4ZpnYq-33" target="oJfoH0E-auPXnU4ZpnYq-4">
          <mxGeometry relative="1" as="geometry" />
        </mxCell>
        <mxCell id="oJfoH0E-auPXnU4ZpnYq-33" value="unesi korisnika" style="rounded=0;whiteSpace=wrap;html=1;fillColor=#d5e8d4;strokeColor=#82b366;" vertex="1" parent="1">
          <mxGeometry x="390" y="150" width="120" height="60" as="geometry" />
        </mxCell>
        <mxCell id="oJfoH0E-auPXnU4ZpnYq-37" style="edgeStyle=orthogonalEdgeStyle;rounded=0;orthogonalLoop=1;jettySize=auto;html=1;entryX=0;entryY=0.5;entryDx=0;entryDy=0;" edge="1" parent="1" source="oJfoH0E-auPXnU4ZpnYq-36" target="oJfoH0E-auPXnU4ZpnYq-5">
          <mxGeometry relative="1" as="geometry">
            <Array as="points">
              <mxPoint x="570" y="300" />
              <mxPoint x="570" y="55" />
            </Array>
          </mxGeometry>
        </mxCell>
        <mxCell id="oJfoH0E-auPXnU4ZpnYq-36" value="gazepoint API config za sta hocemo da saljemo preko servera" style="rounded=0;whiteSpace=wrap;html=1;fillColor=#008a00;strokeColor=#005700;fontColor=#ffffff;" vertex="1" parent="1">
          <mxGeometry x="390" y="270" width="120" height="60" as="geometry" />
        </mxCell>
      </root>
    </mxGraphModel>
  </diagram>
</mxfile>
